<?xml version="1.0" encoding="UTF-8"?>
<svg id="Layer_1" data-name="Layer 1" xmlns="http://www.w3.org/2000/svg" xmlns:xlink="http://www.w3.org/1999/xlink" version="1.1" viewBox="0 0 144 153">
  <defs>
    <style>
      .cls-1 {
        clip-path: url(#clippath);
      }

      .cls-2 {
        fill: none;
      }

      .cls-2, .cls-3, .cls-4, .cls-5, .cls-6, .cls-7, .cls-8, .cls-9, .cls-10 {
        stroke-width: 0px;
      }

      .cls-3, .cls-6 {
        fill: #4397a1;
      }

      .cls-4 {
        fill: #8bc53f;
      }

      .cls-5 {
        fill: #d09738;
      }

      .cls-6 {
        opacity: .7;
      }

      .cls-7 {
        fill: #c3996b;
      }

      .cls-8 {
        fill: #f6921e;
      }

      .cls-11 {
        opacity: .6;
      }

      .cls-9 {
        fill: #fff;
      }

      .cls-10 {
        fill: #bb5935;
      }
    </style>
    <clipPath id="clippath">
      <path class="cls-2" d="M72.3,149.7L8.3,113.7V39.3L72,3l63.6,36.7v73.7l-63.3,36.3Z"/>
    </clipPath>
  </defs>
  <g class="cls-1">
    <g>
      <path class="cls-5" d="M96.7,95.1c13.6,11.7,18.9,29.5,15.4,45.9,19.7,14.1,47.3,11.1,63.5-7.6,17.1-19.8,14.9-49.8-4.9-66.9s-49.8-14.9-66.9,4.9-8.8,13.5-10.5,21c1.2.8,2.3,1.7,3.4,2.7Z"/>
      <path class="cls-3" d="M90.9,94c15.5,9.2,23.8,25.8,23.2,42.5,21.9,10.5,48.6,2.7,61.2-18.6,13.4-22.5,6-51.7-16.6-65-22.5-13.4-51.7-6-65,16.6-4.2,7.1-6.4,14.8-6.6,22.5,1.3.6,2.6,1.3,3.8,2Z"/>
      <path class="cls-10" d="M118.3,53.1c-2.9,17.7-15.3,31.6-31.1,37.1-1.7,24.2,15.2,46.2,39.7,50.2,25.9,4.2,50.3-13.3,54.5-39.2,4.2-25.9-13.3-50.3-39.2-54.5-8.1-1.3-16.1-.5-23.4,2-.1,1.4-.3,2.9-.5,4.3Z"/>
    </g>
    <g>
      <path class="cls-10" d="M103.2,111.7c-18,.6-33.9-8.8-42.5-23.3-24.1,3-42.3,24-41.5,48.7.9,26.2,22.9,46.7,49.1,45.8,26.2-.9,46.7-22.9,45.8-49.1-.3-8.2-2.6-15.9-6.6-22.5-1.4.2-2.9.3-4.3.4Z"/>
      <path class="cls-3" d="M109.1,111c-17.7,2.8-34.8-4.6-45-17.9-23.5,6-39,29-35.1,53.4s28.4,43.5,54.3,39.4c25.9-4.1,43.5-28.4,39.4-54.3-1.3-8.1-4.6-15.5-9.3-21.5-1.4.4-2.8.7-4.3.9Z"/>
      <path class="cls-3" d="M114.9,158.5c-9.7-15.2-9.6-33.7-1.5-48.4-14.8-19.2-42.1-24.3-63-11-22.1,14.1-28.6,43.4-14.5,65.5,14.1,22.1,43.4,28.6,65.5,14.5,6.9-4.4,12.3-10.4,16.1-17.1-.9-1.1-1.7-2.3-2.5-3.6Z"/>
    </g>
    <g>
      <path class="cls-10" d="M30.1,113.3c9.3,7.6,20,12.4,31,14.4,0,0,0-.1.1-.2,19.2,3.6,39.8-1,56.2-14.3,5.4-4.4,9.9-9.4,13.6-14.9,0,0,0,0,.1,0,18.4-27.2,15-63.7-7.9-87.1,0,0,0,0,0-.1C98.7-14.2,58.3-16.9,30.2,5.8,16.1,17.3,7.6,33.3,5.3,50.1c0,0,0,0,0,0-.1,1-.3,2-.4,3,0,.2,0,.5,0,.7,0,.8-.1,1.6-.2,2.4,0,.4,0,.9,0,1.3,0,.6,0,1.2,0,1.9,0,.6,0,1.2,0,1.9,0,.4,0,.9,0,1.3,0,.8,0,1.6.2,2.4,0,.2,0,.5,0,.7,0,1,.2,2,.3,3,0,0,0,0,0,0,.2,1.4.5,2.9.7,4.3,0,.1,0,.3,0,.4,3.1,15,11.2,29.1,24,39.6Z"/>
      <path class="cls-5" d="M6.3,115.7c9.3,7.6,24.4,10.3,35.4,12.4,0,0,0-.1.1-.2,19.2,3.6,39.8-1,56.2-14.3,5.4-4.4,9.9-9.4,13.6-14.9,0,0,0,0,.1,0,18.4-27.2,15-63.7-7.9-87.1,0,0,0,0,0-.1C79.3-13.8,38.9-16.6,10.9,6.2-3.3,17.7-11.8,33.6-14.1,50.4c0,0,0,0,0,0-.1,1-.3,2-.4,3,0,.2,0,.5,0,.7,0,.8-.1,1.6-.2,2.4,0,.4,0,.9,0,1.3,0,.6,0,1.2,0,1.9,0,.6,0,1.2,0,1.9,0,.4,0,.9,0,1.3,0,.8,0,1.6.2,2.4,0,.2,0,.5,0,.7,0,1,.2,2,.3,3,0,0,0,0,0,0,.2,1.4.5,2.9.7,4.3,0,.1,0,.3,0,.4,3.1,15,6.7,31.2,19.5,41.7Z"/>
    </g>
    <g class="cls-11">
      <path class="cls-9" d="M134.6,132.6h-46.3c-3.1,0-5.6-2.5-5.6-5.6V58.6c0-3.1,2.5-5.6,5.6-5.6h46.3c3.1,0,5.6,2.5,5.6,5.6v68.4c0,3.1-2.5,5.6-5.6,5.6ZM88.3,55c-2,0-3.6,1.6-3.6,3.6v68.4c0,2,1.6,3.6,3.6,3.6h46.3c2,0,3.6-1.6,3.6-3.6V58.6c0-2-1.6-3.6-3.6-3.6h-46.3Z"/>
      <rect class="cls-9" x="96.5" y="53.5" width="2" height="78.5"/>
      <rect class="cls-9" x="117.6" y="72.8" width="21.9" height="2"/>
      <rect class="cls-9" x="124.3" y="53.5" width="2" height="39.9"/>
      <g>
        <path class="cls-7" d="M139.1,98.5v27.7c0,3-1.7,5.4-3.9,5.4l-20.3.4c-2.1,0-3.9-2.4-3.9-5.4v-27.7c0-3,1.7-5.8,3.9-5.8h20.3c2.1,0,3.9,2.4,3.9,5.4Z"/>
        <path class="cls-9" d="M115,132.9c-2.7,0-4.9-2.8-4.9-6.4v-27.7c0-3.7,2.2-6.8,4.9-6.8h20.3c2.7,0,4.9,2.8,4.9,6.4v27.7c0,3.6-2.1,6.4-4.9,6.4l-20.2.4ZM115,94.1c-1.5,0-2.9,2.3-2.9,4.8v27.7c0,2.4,1.3,4.4,2.9,4.4l20.2-.4c1.6,0,2.9-2,2.9-4.4v-27.7c0-2.4-1.3-4.4-2.9-4.4h-20.3Z"/>
      </g>
    </g>
    <g>
      <rect class="cls-4" x="57.8" y="71.6" width="39.7" height="28"/>
      <path class="cls-6" d="M97.3,58.2h15.5c2.4,0,4.3,1.9,4.3,4.3v9.3h-19.8v-13.6h0Z"/>
      <rect class="cls-8" x="39.2" y="85.8" width="39" height="28.3" rx="4.1" ry="4.1"/>
      <path class="cls-9" d="M112.7,57.3H44.2c-3.1,0-5.6,2.5-5.6,5.6v25.1c-.2.5-.4,1.1-.4,1.7l.4,20.2c0,1.4.7,2.6,2,3.5,1,.8,2.2,1.3,3.6,1.3h68.4c3.1,0,5.6-2.5,5.6-5.6v-46.3c0-3.1-2.5-5.6-5.6-5.6ZM116.2,62.9v7.9h-17.8v-11.4h14.2c2,0,3.6,1.6,3.6,3.6ZM44.7,84.7c-1.5,0-2.9.4-4,1.1v-13.1h16.4v12h-12.4ZM40.7,109.8l-.4-20.2c0-1.5,2-2.9,4.4-2.9h27.7c2.4,0,4.8,1.4,4.8,2.9v20.3c0,1.5-2,2.9-4.4,2.9h-27.7c-2.4,0-4.4-1.3-4.4-2.9ZM79.2,109.9v-9h17.3v11.9h-18.5c.8-.8,1.2-1.8,1.2-2.9ZM79.2,98.8v-9.2c0-2.6-3.1-4.9-6.8-4.9h-13.3v-12h37.4v26.1h-17.3ZM59.1,70.7v-11.4h37.4v11.4h-37.4ZM98.5,72.7h17.8v26.1h-17.8v-26.1ZM44.2,59.3h12.9v11.4h-16.4v-7.9c0-2,1.6-3.6,3.6-3.6ZM112.7,112.7h-14.2v-11.9h17.8v8.3c0,2-1.6,3.6-3.6,3.6Z"/>
    </g>
  </g>
  <g>
    <path class="cls-9" d="M47.7,48.5c-.6.3-1.7.5-3,.5-3.5,0-5.7-2.1-5.7-5.5s2.2-5.7,6.2-5.7,1.8.2,2.6.4l-.5,2.5c-.4-.2-1-.3-1.9-.3-1.8,0-2.9,1.3-2.9,3,0,2,1.3,3,2.9,3s1.4-.1,1.9-.3l.4,2.5Z"/>
    <path class="cls-9" d="M49.6,33.2h3.3v6.1h0c.4-.5.8-.8,1.3-1.1.5-.3,1.1-.4,1.7-.4,2.1,0,3.8,1.5,3.8,4.7v6.3h-3.3v-5.9c0-1.4-.5-2.4-1.7-2.4s-1.4.6-1.7,1.2c0,.2-.1.5-.1.7v6.4h-3.3v-15.6Z"/>
    <path class="cls-9" d="M73.1,43.3c0,3.9-2.8,5.7-5.7,5.7s-5.6-2.1-5.6-5.5,2.3-5.7,5.7-5.7,5.5,2.3,5.5,5.5ZM65.3,43.4c0,1.8.8,3.2,2.2,3.2s2.1-1.3,2.1-3.2-.6-3.2-2.1-3.2-2.2,1.6-2.2,3.2Z"/>
    <path class="cls-9" d="M75.2,41.6c0-1.4,0-2.6,0-3.6h2.9l.2,1.5h0c.8-1.1,2-1.7,3.6-1.7,2.4,0,4.5,2,4.5,5.5s-2.5,5.8-4.9,5.8-2.3-.5-2.8-1.2h0v5.3h-3.3v-11.5ZM78.5,44.2c0,.3,0,.5,0,.7.2.9,1,1.6,2,1.6,1.5,0,2.3-1.2,2.3-3s-.8-3-2.3-3-1.8.7-2,1.7c0,.2,0,.4,0,.6v1.5Z"/>
    <path class="cls-9" d="M91.8,35c0,.9-.7,1.7-1.8,1.7s-1.8-.7-1.7-1.7c0-1,.7-1.7,1.8-1.7s1.8.7,1.8,1.7ZM88.3,48.8v-10.8h3.3v10.8h-3.3Z"/>
    <path class="cls-9" d="M94.4,41.5c0-1.3,0-2.5,0-3.4h2.9l.2,1.5h0c.4-.7,1.5-1.7,3.3-1.7s3.9,1.5,3.9,4.6v6.4h-3.3v-6c0-1.4-.5-2.3-1.7-2.3s-1.5.6-1.7,1.3c0,.2-.1.5-.1.8v6.2h-3.3v-7.3Z"/>
  </g>
</svg>
