<?xml version="1.0" encoding="UTF-8" standalone="no"?>
<svg
   id="Layer_1"
   data-name="Layer 1"
   viewBox="0 0 207.72 275.3"
   version="1.1"
   sodipodi:docname="chopin-combined.svg"
   inkscape:export-filename="chopin-combined.png"
   inkscape:export-xdpi="300"
   inkscape:export-ydpi="300"
   inkscape:version="1.3.2 (091e20e, 2023-11-25)"
   xmlns:inkscape="http://www.inkscape.org/namespaces/inkscape"
   xmlns:sodipodi="http://sodipodi.sourceforge.net/DTD/sodipodi-0.dtd"
   xmlns="http://www.w3.org/2000/svg"
   xmlns:svg="http://www.w3.org/2000/svg">
  <sodipodi:namedview
     id="namedview63"
     pagecolor="#ffffff"
     bordercolor="#000000"
     borderopacity="0.25"
     inkscape:showpageshadow="2"
     inkscape:pageopacity="0.0"
     inkscape:pagecheckerboard="0"
     inkscape:deskcolor="#d1d1d1"
     inkscape:zoom="2.8162911"
     inkscape:cx="103.86"
     inkscape:cy="137.59231"
     inkscape:window-width="1392"
     inkscape:window-height="1212"
     inkscape:window-x="0"
     inkscape:window-y="804"
     inkscape:window-maximized="0"
     inkscape:current-layer="Layer_1" />
  <defs
     id="defs2">
    <style
       id="style1">
      .cls-1 {
        stroke: #fff;
        stroke-miterlimit: 10;
        stroke-width: .2px;
      }

      .cls-1, .cls-2 {
        fill: #fff;
      }

      .cls-3, .cls-4, .cls-5, .cls-6, .cls-7, .cls-8, .cls-9, .cls-10, .cls-11, .cls-12, .cls-2, .cls-13 {
        stroke-width: 0px;
      }

      .cls-3, .cls-6 {
        fill: #4697a1;
      }

      .cls-4 {
        fill: #ce9638;
      }

      .cls-14 {
        clip-path: url(#clippath);
      }

      .cls-5 {
        fill: none;
      }

      .cls-6 {
        isolation: isolate;
      }

      .cls-6, .cls-15 {
        opacity: .7;
      }

      .cls-7 {
        fill: #c3996b;
      }

      .cls-16 {
        clip-path: url(#clippath-1);
      }

      .cls-8 {
        fill: #4798a1;
      }

      .cls-9 {
        fill: #f69320;
      }

      .cls-10 {
        fill: #bd5a35;
      }

      .cls-17 {
        opacity: .6;
      }

      .cls-11 {
        fill: #cf9738;
      }

      .cls-12 {
        fill: #bc5935;
      }

      .cls-13 {
        fill: #8cc540;
      }
    </style>
    <clipPath
       id="clippath">
      <polygon
         class="cls-5"
         points="141.29 268.12 77.29 232.02 77.29 158.12 140.89 121.32 204.49 158.22 204.49 231.72 141.19 268.12 141.29 268.12"
         id="polygon1" />
    </clipPath>
    <clipPath
       id="clippath-1">
      <polygon
         class="cls-5"
         points="75.29 152.15 11.29 116.15 11.29 41.75 74.99 5.45 138.59 42.15 138.59 115.85 75.29 152.15"
         id="polygon2" />
    </clipPath>
  </defs>
  <g
     id="g42">
    <g
       class="cls-14"
       clip-path="url(#clippath)"
       id="g36">
      <g
         id="g35">
        <g
           id="g8">
          <path
             class="cls-10"
             d="M161.99,175.82c3.8,21.7-5.1,42.7-21.2,55.6,7.7,28.8,36.2,47.5,66.2,42.3,31.7-5.5,53-35.6,47.5-67.3-5.5-31.7-35.6-53-67.3-47.5-10,1.7-18.9,5.9-26.3,11.8.5,1.7.8,3.4,1.2,5.2l-.1-.1Z"
             id="path2" />
          <path
             class="cls-8"
             d="M134.39,191.42c8.6-20.3,27.3-33.2,47.8-35.3,9.1-28.4-4.9-59.5-32.9-71.3-29.6-12.5-63.8,1.4-76.3,31-12.5,29.6,1.4,63.8,31,76.3,9.3,3.9,19.1,5.3,28.5,4.3.5-1.7,1.1-3.4,1.8-5h.1Z"
             id="path3" />
          <path
             class="cls-8"
             d="M72.39,179.92c22.1.6,48.7-1.6,58.1,16.8,29.7-1.9,57.7-25.8,58.5-56.1.8-32.2-28.6-59.4-60.8-60.2-32.3-.9-59,24.5-59.8,56.6-.3,10.1,2.2,42.8,4,42.9Z"
             id="path4" />
          <path
             class="cls-8"
             d="M154.99,228.02c.5-10.1-1.7-19.7-5.8-28.2h-.2c-7.3-14.8-20.7-26.4-37.9-30.8-5.7-1.4-11.4-2-16.9-1.7h0c-53.3-1.1-56.7,21.3-54.8,49.1h-.1c-4.7,29.4,13.7,58.1,43.1,65.6,14.9,3.8,29.9,1.5,42.4-5.4h0c.8-.4,1.5-.8,2.2-1.3.2-.1.4-.2.5-.3.6-.4,1.2-.7,1.7-1.1.3-.2.6-.4.9-.6.4-.3.9-.6,1.3-.9.4-.3.8-.6,1.2-1,.3-.2.6-.5.9-.7.5-.4,1-.9,1.6-1.3.2-.1.3-.3.5-.4.6-.6,1.3-1.2,1.9-1.8h0c.9-.9,1.7-1.8,2.5-2.7l.3-.3c8.6-9.6,14.1-22.2,14.7-36.1v-.1Z"
             id="path5" />
          <path
             class="cls-10"
             d="M165.79,236.72c.5-10.1-1.7-19.7-5.8-28.2h-.2c-7.3-14.8-20.7-26.4-37.9-30.8-5.7-1.4-11.4-2-16.9-1.7h0c-27.6,1.3-50.6,21.9-54.8,49.1h-.1c-4.7,29.4,13.7,58.1,43.1,65.6,14.9,3.8,29.9,1.5,42.4-5.4h0c.8-.4,1.5-.8,2.2-1.3.2-.1.4-.2.5-.3.6-.4,1.2-.7,1.7-1.1.3-.2.6-.4.9-.6.4-.3.9-.6,1.3-.9.4-.3.8-.6,1.2-1,.3-.2.6-.5.9-.7.5-.4,1-.9,1.6-1.3.2-.1.3-.3.5-.4.6-.6,1.3-1.2,1.9-1.8h0c.9-.9,1.7-1.8,2.5-2.7l.3-.3c8.6-9.6,14.1-22.2,14.7-36.1v-.1Z"
             id="path6" />
          <path
             class="cls-4"
             d="M160.09,168.72c6.4,21.1.2,43-14.2,57.7,11.2,27.6,41.8,42.6,70.9,33.8,30.8-9.3,48.2-41.9,38.8-72.7-9.3-30.8-41.9-48.2-72.7-38.8-9.7,2.9-18,8.2-24.6,14.9.7,1.6,1.3,3.3,1.8,5v.1Z"
             id="path7" />
          <path
             class="cls-4"
             d="M216.89,153.72c-16.8,14.3-39.4,17.3-58.6,10-20.9,21.3-22.5,55.3-2.8,78.5,20.8,24.5,57.6,27.5,82.1,6.7s27.5-57.6,6.7-82.1c-6.5-7.7-14.7-13.3-23.5-16.7-1.2,1.3-2.5,2.5-3.9,3.6Z"
             id="path8" />
        </g>
        <g
           class="cls-15"
           id="g22">
          <g
             id="g11">
            <path
               class="cls-2"
               d="M122.79,176.12c-2.4,0-4.3-2-4.3-4.3s.5-2.4,1.4-3.2v-14.2c0-1.6,1.3-2.9,2.9-2.9s2.9,1.3,2.9,2.9v14.2c.9.8,1.4,2,1.4,3.2,0,2.4-2,4.3-4.3,4.3ZM122.79,152.92c-.8,0-1.4.7-1.4,1.4v14.5c0,.2-.1.4-.3.6-.7.6-1.2,1.4-1.2,2.3,0,1.6,1.3,2.9,2.9,2.9s2.9-1.3,2.9-2.9-.4-1.7-1.2-2.3c-.2-.1-.3-.4-.3-.6v-14.5c0-.8-.7-1.4-1.4-1.4Z"
               id="path9" />
            <path
               class="cls-2"
               d="M122.79,174.02c-1.2,0-2.2-1-2.2-2.2s1-2.2,2.2-2.2,2.2,1,2.2,2.2-1,2.2-2.2,2.2ZM122.79,171.12c-.4,0-.7.3-.7.7s.3.7.7.7.7-.3.7-.7-.3-.7-.7-.7Z"
               id="path10" />
            <path
               class="cls-2"
               d="M122.79,171.12c-.4,0-.7-.3-.7-.7v-15.2c0-.4.3-.7.7-.7s.7.3.7.7v15.2c0,.4-.3.7-.7.7Z"
               id="path11" />
          </g>
          <g
             id="g15">
            <path
               class="cls-2"
               d="M132.99,172.52c-1.3,0-2.5-.1-3.8-.4-.4,0-.6-.5-.6-.9s.5-.6.9-.6c1.1.3,2.3.4,3.5.4,8.8,0,15.9-7.2,15.9-15.9s-7.2-15.9-15.9-15.9-15.9,7.2-15.9,15.9.5,4.8,1.6,6.9c.2.4,0,.8-.3,1-.4.2-.8,0-1-.3-1.1-2.4-1.7-4.9-1.7-7.6,0-9.6,7.8-17.4,17.4-17.4s17.4,7.8,17.4,17.4-7.8,17.4-17.4,17.4h-.1Z"
               id="path12" />
            <path
               class="cls-2"
               d="M147.49,154.82c-.3,0-.7,0-1-.3-.5-.3-.8-.9-.8-1.5v-.3l-.3-.7c-.5-1-.7-2.2-.4-3.2l.7-3.6c0-.4.5-.6.9-.6s.6.5.6.9l-.7,3.6c-.2.8,0,1.6.3,2.3l.4.8v.8c0,.2.1.3.2.3h.3l1.6-.7c.4-.2.8,0,1,.4s0,.8-.4,1l-1.6.7c-.2,0-.5.1-.7.1h-.1Z"
               id="path13" />
            <path
               class="cls-2"
               d="M131.39,153.22c-.1,0-.3,0-.4-.1l-2-1.3c-.7-.5-1.5-.7-2.3-.7-1.4,0-2.5-.9-2.9-2.2h0c-1-.4-1.7-1.4-1.7-2.5s.4-1.5,1-2l.7-.6c.3-.2.4-.5.4-.8v-2.3c0-.4.3-.7.7-.7s.7.3.7.7v2.3c0,.8-.4,1.5-1,2l-.7.6c-.3.2-.4.5-.4.8s.3.8.7,1h.4c.2.2.4.4.5.6v.5c.3.7.9,1.1,1.6,1.1s1.6.2,2.4.5c0-.5-.5-.9-1-1l-1.1-.2c-.2,0-.4-.2-.5-.3-.1-.2-.1-.4,0-.6l.5-2.2c0-.3.4-.5.7-.5h2.7c.3,0,.5.1.6.4,0,0,.1.2.4.5-.5-.8-.4-1.8.3-2.4.4-.4.9-.6,1.4-.6h1.6c.2,0,.4-.2.4-.4v-1.1c0-.4.3-.7.7-.7h1.4c1.1,0,2.1-.2,3-.7l.6-.3c.4-.2.8,0,1,.3.2.4,0,.8-.3,1l-.6.3c-1.1.6-2.4.9-3.7.9h-.7v.4c0,1-.8,1.8-1.8,1.8h-1.6c-.1,0-.3,0-.4.1-.2.2-.2.4,0,.6l1.6,2.4c.2.2.2.6,0,.8s-.4.4-.7.3c-1.9-.3-3-1.5-3.5-2.1h-1.7l-.2.9h.4c1.2.3,2,1.3,2.1,2.5l1.5,2c.2.3.2.7,0,.9-.1.1-.3.2-.5.2l-.3-.1Z"
               id="path14" />
            <path
               class="cls-2"
               d="M135.69,170.42h-.3c-1.6-.8-2.6-2.4-2.6-4.1v-.3c0-.4,0-.8.1-1.1l.8-3.1c-1.1-.3-1.9-1.3-2-2.5l-.6-1.2c-.3-.6-.5-1.3-.5-2v-.8c0-1.2.5-2.3,1.3-3.1l.3-.3c.6-.6,1.5-1,2.3-1s1.7.3,2.3,1h.1c0,.1,1.2.1,1.2.1.5,0,1,.1,1.5.4l.5.3c.9.4,1.5,1.2,1.7,2.2l.2.6,1.3.5c1.1.4,1.8,1.6,1.6,2.8-.1.6-.4,1.1-.9,1.5l-1.3,1v1c0,1.1-.6,2.1-1.6,2.6l-.7.4-.6,1.1c-.3.7-.9,1.2-1.7,1.4l-1.9.6v1.6c0,.3-.1.5-.3.6-.1,0-.2.1-.4.1l.2-.3ZM134.59,152.12c-.5,0-1,.2-1.3.5l-.3.3c-.6.6-.9,1.3-.9,2.1v.8c0,.5.1.9.3,1.3l.7,1.4v.3c0,.6.4,1.2,1,1.3h.6c.2.2.3.3.4.5,0,.2.1.4,0,.5l-1,3.8v1.1c0,.7.3,1.4.7,2v-.7c0-.3.2-.6.5-.7l2.4-.8c.4-.1.7-.4.8-.7l.7-1.4c0-.1.2-.3.3-.3l1-.5c.5-.2.8-.7.8-1.3v-1.4c0-.2.1-.4.3-.6l1.6-1.2c.2-.2.3-.4.4-.6,0-.5-.2-1-.6-1.1l-1.7-.6c-.2,0-.4-.3-.5-.5l-.2-1c-.1-.5-.5-1-1-1.2l-.5-.3c-.3-.1-.5-.2-.8-.2h-1.5c-.2,0-.4,0-.5-.2l-.3-.3c-.4-.4-.8-.5-1.3-.5l-.1.2Z"
               id="path15" />
          </g>
          <path
             class="cls-2"
             d="M148.89,150.92c-.2,0-.5-.1-.6-.3-.2-.3-.1-.8.2-1,2.1-1.3,3.3-3.6,3.3-6.1,0-4-3.3-7.2-7.2-7.2s-4.7,1.2-6.1,3.3c-.2.3-.7.4-1,.2-.3-.2-.4-.7-.2-1,1.6-2.5,4.3-4,7.3-4,4.8,0,8.7,3.9,8.7,8.7s-1.5,5.7-4,7.3c-.1,0-.3.1-.4.1Z"
             id="path16" />
          <path
             class="cls-2"
             d="M144.59,133.42c-.4,0-.7-.3-.7-.7v-2.9c0-.4.3-.7.7-.7s.7.3.7.7v2.9c0,.4-.3.7-.7.7Z"
             id="path17" />
          <path
             class="cls-2"
             d="M153.99,138.82c-.3,0-.5-.1-.6-.4-.2-.3,0-.8.3-1l2.5-1.4c.3-.2.8,0,1,.3s0,.8-.3,1l-2.5,1.4h-.4v.1Z"
             id="path18" />
          <path
             class="cls-2"
             d="M156.49,151.12h-.4l-2.5-1.4c-.3-.2-.5-.6-.3-1s.6-.5,1-.3l2.5,1.4c.3.2.5.6.3,1-.1.2-.4.4-.6.4v-.1Z"
             id="path19" />
          <path
             class="cls-2"
             d="M149.99,134.82h-.4c-.3-.2-.5-.6-.3-1l2.2-3.8c.2-.3.6-.5,1-.3s.5.6.3,1l-2.2,3.8c-.1.2-.4.4-.6.4v-.1Z"
             id="path20" />
          <path
             class="cls-2"
             d="M139.19,134.82c-.2,0-.5-.1-.6-.3l-1.8-2.9c-.2-.3-.1-.8.2-1,.3-.2.8-.1,1,.2l1.8,2.9c.2.3.1.8-.2,1-.1,0-.3.1-.4.1Z"
             id="path21" />
          <path
             class="cls-2"
             d="M158.39,144.32h-2.9c-.4,0-.7-.3-.7-.7s.3-.7.7-.7h2.9c.4,0,.7.3.7.7s-.3.7-.7.7Z"
             id="path22" />
        </g>
        <g
           class="cls-15"
           id="g24">
          <path
             class="cls-1"
             d="M129.89,241.12c-.7-1.3-1.9-2-2.9-1.6-.7.2-6.2,2.8-8.4,3.9,0-.3-.2-.6-.3-.9-.4-.7-1-1.2-1.8-1.4-.2,0-5.7-1.5-8.6-1.5s-1.7.6-3.2,1.4c-.4.2-.9.5-1,.6-.3,0-1.2.2-1.9.2-.3-.9-1.1-1.5-2.1-1.5h-3c-1.2,0-2.2,1-2.2,2.2v7.6c0,1.2,1,2.2,2.2,2.2h3c1.2,0,2.2-1,2.2-2.2h2c.6,0,5.7,1.7,7.8,2.4,1.3.4,1.9.6,2,.6h1.2c1,0,2.4-.1,3-.6.8-.5,11-7.8,11.4-8.1.8-.6,1.2-2.2.6-3.5v.2ZM100.49,250.12c0,.5-.4.9-.9.9h-3c-.5,0-.9-.4-.9-.9v-7.6c0-.5.4-.9.9-.9h3c.5,0,.9.4.9.9v7.6ZM128.49,243.52c-.4.3-10.6,7.6-11.4,8.1-.5.3-2.7.4-3.2.3-.1,0-1-.3-2-.6-5.7-1.8-7.7-2.4-8.2-2.4h-2v-5.8c.7,0,1.8-.2,2.1-.3.3,0,.6-.3,1.4-.7.7-.4,2.1-1.2,2.5-1.2,2.7,0,8.2,1.5,8.2,1.5.4.1.8.4,1,.8.2.4.3.8.1,1.2-.3.9-1.2,1.3-2.1,1.1l-5.2-1.3c-.4,0-.7.1-.8.5,0,.4.1.7.5.8l5.1,1.3c.3,0,.6.1.8.1,1.2,0,2.3-.8,2.7-1.9,3.4-1.6,8.5-4,9-4.2.4-.1,1,.2,1.4.9s0,1.7-.2,1.8h.3Z"
             id="path23" />
          <path
             class="cls-1"
             d="M133.49,220.82h-4c.2-2.1-.5-4.5-2.1-6.5s-3.7-3.2-5.9-3.3c-3.6-.1-6.2,2-7.3,3.1-1-1.1-3.6-3.2-7.3-3.1-2.2,0-4.3,1.3-5.9,3.3-1.6,2-2.3,4.3-2.1,6.5h-3.9c-.4,0-.7.3-.7.7s.3.7.7.7h4.2c1.3,4.1,6,8.2,6.3,8.3.3.2.7.2.9,0,.2-.3.2-.7,0-.9,0,0-4.4-3.7-5.7-7.3h3.1l2.1,3c.1.2.3.3.5.3h0c.2,0,.4-.1.5-.3l1.6-2.3,1.5,3.1c.1.2.3.4.6.4.2,0,.5-.1.6-.3l3-5.5,3,5.5c.1.2.3.3.6.3h0c.2,0,.5-.1.6-.4l1.5-3.1,1.6,2.3c.1.2.3.3.5.3s.4-.1.5-.3l2.1-3h3c-1.3,3.6-5.7,7.3-5.7,7.3l-2.3,2.2-5.5,5.4-5.5-5.4c-.3-.3-.7-.2-.9,0-.3.3-.2.7,0,.9l6.4,6.3,6.4-6.3,2.3-2.1c.4-.3,5-4.3,6.2-8.3h4.3c.4,0,.7-.3.7-.7s-.3-.7-.7-.7l.2-.1ZM124.49,220.82c-.2,0-.4.1-.5.3l-1.8,2.5-1.7-2.4c-.1-.2-.4-.3-.6-.3s-.4.2-.5.4l-1.5,2.9-3-5.5c-.1-.2-.3-.3-.6-.3s-.5.1-.6.3l-3,5.5-1.5-2.9c-.1-.2-.3-.3-.5-.4-.2,0-.5,0-.6.3l-1.7,2.4-1.8-2.5c-.1-.2-.3-.3-.5-.3h-3.7c-.2-1.8.4-4,1.8-5.7,1.3-1.7,3.1-2.7,4.9-2.8,4-.1,6.7,3.1,6.7,3.2l.5.6.5-.6s2.7-3.3,6.7-3.2c1.8,0,3.6,1.1,4.9,2.8,1.4,1.7,2,3.9,1.8,5.7h-3.7Z"
             id="path24" />
        </g>
        <g
           class="cls-15"
           id="g34">
          <path
             class="cls-2"
             d="M183.99,211.12c-2.5-2.7-5.8-4.3-9.4-4.7-.2-.7-.8-1.2-1.6-1.2s-1.7.7-1.7,1.7.7,1.7,1.7,1.7,1.3-.4,1.5-1c3.3.3,6.4,1.9,8.7,4.4s3.6,5.8,3.6,9.3.2.5.5.5.5-.2.5-.5c0-3.7-1.4-7.3-3.9-10l.1-.2ZM173.09,207.42c-.3,0-.6-.3-.6-.6s.3-.6.6-.6.6.3.6.6-.3.6-.6.6Z"
             id="path25" />
          <path
             class="cls-2"
             d="M173.09,233.72c-.7,0-1.3.4-1.5,1.1-6.9-.8-12.1-6.6-12.1-13.6s-.2-.5-.5-.5-.5.2-.5.5c0,7.6,5.6,13.9,13.2,14.7.2.7.8,1.2,1.6,1.2s1.7-.7,1.7-1.7-.7-1.7-1.7-1.7h-.2ZM173.09,235.92c-.3,0-.6-.3-.6-.6s.3-.6.6-.6.6.3.6.6-.3.6-.6.6Z"
             id="path26" />
          <path
             class="cls-2"
             d="M188.09,226.32h-1.7c-.4,0-.7.3-.7.7v8.7h-1v-5.9c0-.4-.3-.7-.7-.7h-1.7c-.4,0-.7.3-.7.7v5.9h-1v-4c0-.4-.3-.7-.7-.7h-1.7c-.4,0-.7.3-.7.7v5.1h11.5v-9.7c0-.4-.3-.7-.7-.7l-.2-.1ZM178.39,235.72v-3.7h1v3.7h-1ZM182.59,235.72v-5.5h1v5.5h-1ZM186.79,235.72v-8.3h1v8.3h-1Z"
             id="path27" />
          <g
             id="g29">
            <path
               class="cls-2"
               d="M177.29,229.62h-1.1c-.5,0-.9-.4-.9-.9v-.2h-.1c-.4.5-1,.5-1.3.1l-.8-.8c-.4-.4-.4-1,0-1.3h.1c0-.1-.2-.1-.2-.1-.5,0-.9-.4-.9-.9v-1.1c0-.5.4-.9.9-.9h.2-.1c-.4-.5-.4-1.1,0-1.5l.8-.8c.4-.4,1-.4,1.3,0h.1c0,.1,0,0,0,0,0-.5.4-.9.9-.9h1.1c.5,0,.9.4.9.9v.2h.1c.4-.5,1-.5,1.3-.1l.8.8c.4.4.4,1,0,1.3h-.1c0,.1.2.1.2.1.5,0,.9.4.9.9v1.1c0,.5-.4.9-.9.9h-.2.1c.4.5.4,1.1,0,1.5l-.8.8c-.2.2-.4.3-.7.3h0c-.3,0-.5-.1-.7-.3h-.1c0-.1,0,0,0,0,0,.5-.4.9-.9.9h.1ZM176.69,224.12c-.3,0-.6.3-.6.6s.3.6.6.6.6-.3.6-.6-.3-.6-.6-.6Z"
               id="path28" />
            <path
               class="cls-4"
               d="M180.49,225.42v-1.1h-1.5c0-.2-.1-.5-.3-.7l1-1-.8-.8-1,1c-.2-.1-.5-.3-.7-.3v-1.4h-1.1v1.4c-.3,0-.5.2-.7.3l-1-1-.8.8,1,1c-.1.2-.2.5-.3.7h-1.5v1.1h1.5c0,.2.2.4.3.6l-1.1,1.1.8.8,1.1-1.1c.2.1.4.2.6.2v1.6h1.1v-1.6c.2,0,.4-.1.6-.2l1.1,1.1.8-.8-1.1-1.1c.1-.2.2-.4.3-.6h1.7ZM176.69,226.32c-.9,0-1.6-.7-1.6-1.6s.7-1.6,1.6-1.6,1.6.7,1.6,1.6-.7,1.6-1.6,1.6Z"
               id="path29" />
          </g>
          <g
             id="g31">
            <circle
               class="cls-2"
               cx="170.39"
               cy="216.32"
               r=".8"
               id="circle29" />
            <circle
               class="cls-2"
               cx="170.39"
               cy="220.62"
               r=".8"
               id="circle30" />
            <circle
               class="cls-2"
               cx="170.39"
               cy="224.82"
               r=".8"
               id="circle31" />
            <path
               class="cls-2"
               d="M173.49,226.52h-4.9v-3.5h4.8v-.8h-4.8v-3.4h7.8v1.7h.8c0,.1,0-6.1,0-6.1,0-.4-.4-.8-.8-.8h-7.8c-.4,0-.8.4-.8.8v12c0,.4.4.8.8.8h4.9v-.8.1ZM168.59,214.52h7.8v3.5h-7.8v-3.5Z"
               id="path31" />
          </g>
          <g
             id="g33">
            <path
               class="cls-2"
               d="M165.89,217.22h-10.4v-9.1c0-.3-.2-.5-.5-.5s-.5.2-.5.5v9.6c0,.3.2.5.5.5h10.8c.3,0,.5-.2.5-.5s-.2-.5-.5-.5h.1Z"
               id="path32" />
            <path
               class="cls-2"
               d="M164.79,208.22c-.7,0-1.3.6-1.3,1.3s0,.5.2.7l-.8,1.1c-.5-.1-1,0-1.3.4l-.7-.2c0-.6-.6-1.1-1.3-1.1s-1.3.6-1.3,1.3,0,.6.3.8l-.8,1.4h-.2c-.7,0-1.3.6-1.3,1.3s.6,1.3,1.3,1.3,1.3-.6,1.3-1.3,0-.6-.3-.8l.8-1.4c.5,0,1-.1,1.3-.5l.7.2c0,.7.6,1.2,1.3,1.2s1.3-.6,1.3-1.3,0-.5-.2-.7l.8-1.1h.3c.7,0,1.3-.6,1.3-1.3s-.6-1.3-1.3-1.3h-.1ZM162.59,212.22c.2,0,.3.2.3.3s-.2.3-.3.3-.3-.2-.3-.3.2-.3.3-.3ZM164.79,209.12c.2,0,.3.2.3.3s-.2.3-.3.3-.3-.2-.3-.3.2-.3.3-.3ZM159.59,211.32c.2,0,.3.2.3.3s-.2.3-.3.3-.3-.2-.3-.3.2-.3.3-.3ZM157.49,214.72c.2,0,.3.2.3.3s-.2.3-.3.3-.3-.2-.3-.3.2-.3.3-.3Z"
               id="path33" />
          </g>
        </g>
      </g>
    </g>
    <g
       id="g41">
      <path
         class="cls-2"
         d="M105.09,201.22c-.7.4-2.3.7-4.5.7-6,0-9.1-3.7-9.1-8.7s4.2-9.2,9.5-9.2,3.6.4,4.3.8l-.8,3.1c-.8-.3-1.9-.6-3.3-.6-3.1,0-5.5,1.9-5.5,5.7s2.1,5.7,5.6,5.7,2.5-.3,3.3-.6l.6,3.1h-.1Z"
         id="path36" />
      <path
         class="cls-2"
         d="M111.69,184.32v6.7h6.5v-6.7h3.9v17.4h-3.9v-7.3h-6.5v7.3h-3.9v-17.4h3.9Z"
         id="path37" />
      <path
         class="cls-2"
         d="M141.39,192.82c0,5.7-3.5,9.1-8.5,9.1s-8.2-3.9-8.2-8.8,3.3-9.1,8.4-9.1,8.2,4,8.2,8.8h.1ZM128.79,193.02c0,3.4,1.6,5.8,4.2,5.8s4.2-2.5,4.2-5.9-1.5-5.8-4.2-5.8-4.2,2.5-4.2,5.9Z"
         id="path38" />
      <path
         class="cls-2"
         d="M143.89,184.52c1.3-.2,3.1-.4,5.2-.4s4.4.4,5.6,1.4c1,.8,1.6,2,1.6,3.6s-1.6,3.7-3.1,4.3h0c1.2.6,1.9,1.7,2.3,3.3.5,2,1.1,4.2,1.4,4.9h-4c-.3-.5-.7-1.9-1.2-4-.5-2.2-1.2-2.8-2.8-2.8h-1.2v6.8h-3.9v-17.1h.1ZM147.79,192.02h1.5c2,0,3.1-1,3.1-2.5s-1.1-2.4-2.9-2.4c-1,0-1.5,0-1.8.1v4.8h.1Z"
         id="path39" />
      <path
         class="cls-2"
         d="M159.19,184.52c1.4-.2,3.3-.4,5.3-.4,3.3,0,5.4.6,7.1,1.9,1.8,1.3,2.9,3.5,2.9,6.5s-1.2,5.6-2.9,7c-1.8,1.5-4.6,2.2-8,2.2s-3.5-.1-4.5-.3v-17.1l.1.2ZM163.09,198.72h1.4c3.6,0,5.9-1.9,5.9-6.1,0-3.6-2.1-5.5-5.5-5.5s-1.4,0-1.8.2v11.4Z"
         id="path40" />
      <path
         class="cls-2"
         d="M177.29,197.62c1.1.5,2.7,1.1,4.4,1.1s2.8-.7,2.8-1.9-.8-1.7-2.9-2.4c-2.9-1-4.8-2.6-4.8-5.1s2.5-5.2,6.6-5.2,3.4.4,4.4.9l-.9,3.2c-.7-.3-1.9-.8-3.6-.8s-2.5.8-2.5,1.7,1,1.6,3.2,2.4c3.1,1.1,4.5,2.7,4.5,5.2s-2.2,5.4-7,5.4-3.9-.5-4.9-1.1l.8-3.2-.1-.2Z"
         id="path41" />
    </g>
  </g>
  <g
     id="g63">
    <g
       class="cls-16"
       clip-path="url(#clippath-1)"
       id="g57">
      <g
         id="g56">
        <g
           id="g44">
          <path
             class="cls-11"
             d="M99.69,97.55c13.6,11.7,18.9,29.5,15.4,45.9,19.7,14.1,47.3,11.1,63.5-7.6,17.1-19.8,14.9-49.8-4.9-66.9s-49.8-14.9-66.9,4.9-8.8,13.5-10.5,21c1.2.8,2.3,1.7,3.4,2.7h0Z"
             id="path42" />
          <path
             class="cls-3"
             d="M93.89,96.45c15.5,9.2,23.8,25.8,23.2,42.5,21.9,10.5,48.6,2.7,61.2-18.6,13.4-22.5,6-51.7-16.6-65-22.5-13.4-51.7-6-65,16.6-4.2,7.1-6.4,14.8-6.6,22.5,1.3.6,2.6,1.3,3.8,2Z"
             id="path43" />
          <path
             class="cls-12"
             d="M121.29,55.55c-2.9,17.7-15.3,31.6-31.1,37.1-1.7,24.2,15.2,46.2,39.7,50.2,25.9,4.2,50.3-13.3,54.5-39.2,4.2-25.9-13.3-50.3-39.2-54.5-8.1-1.3-16.1-.5-23.4,2-.1,1.4-.3,2.9-.5,4.3v.1Z"
             id="path44" />
        </g>
        <g
           id="g47">
          <path
             class="cls-12"
             d="M106.19,114.15c-18,.6-33.9-8.8-42.5-23.3-24.1,3-42.3,24-41.5,48.7.9,26.2,22.9,46.7,49.1,45.8,26.2-.9,46.7-22.9,45.8-49.1-.3-8.2-2.6-15.9-6.6-22.5-1.4.2-2.9.3-4.3.4Z"
             id="path45" />
          <path
             class="cls-3"
             d="M112.09,113.45c-17.7,2.8-34.8-4.6-45-17.9-23.5,6-39,29-35.1,53.4,3.9,24.4,28.4,43.5,54.3,39.4,25.9-4.1,43.5-28.4,39.4-54.3-1.3-8.1-4.6-15.5-9.3-21.5-1.4.4-2.8.7-4.3.9Z"
             id="path46" />
          <path
             class="cls-3"
             d="M117.89,160.95c-9.7-15.2-9.6-33.7-1.5-48.4-14.8-19.2-42.1-24.3-63-11-22.1,14.1-28.6,43.4-14.5,65.5,14.1,22.1,43.4,28.6,65.5,14.5,6.9-4.4,12.3-10.4,16.1-17.1-.9-1.1-1.7-2.3-2.5-3.6l-.1.1Z"
             id="path47" />
        </g>
        <g
           id="g49">
          <path
             class="cls-12"
             d="M33.09,115.75c9.3,7.6,20,12.4,31,14.4,0,0,0-.1.1-.2,19.2,3.6,39.8-1,56.2-14.3,5.4-4.4,9.9-9.4,13.6-14.9h.1c18.4-27.2,15-63.7-7.9-87.1v-.1C101.69-11.75,61.29-14.45,33.19,8.25c-14.1,11.5-22.6,27.5-24.9,44.3h0c-.1,1-.3,2-.4,3v.7c0,.8-.1,1.6-.2,2.4v6.4c0,.8,0,1.6.2,2.4v.7c0,1,.2,2,.3,3h0c.2,1.4.5,2.9.7,4.3v.4c3.1,15,11.2,29.1,24,39.6l.2.3Z"
             id="path48" />
          <path
             class="cls-11"
             d="M9.29,118.15c9.3,7.6,24.4,10.3,35.4,12.4,0,0,0-.1.1-.2,19.2,3.6,39.8-1,56.2-14.3,5.4-4.4,9.9-9.4,13.6-14.9h.1c18.4-27.2,15-63.7-7.9-87.1v-.1C82.29-11.35,41.89-14.15,13.89,8.65-.31,20.15-8.81,36.05-11.11,52.85h0c-.1,1-.3,2-.4,3v.7c0,.8-.1,1.6-.2,2.4v6.4c0,.8,0,1.6.2,2.4v.7c0,1,.2,2,.3,3h0c.2,1.4.5,2.9.7,4.3v.4c3.1,15,6.7,31.2,19.5,41.7l.3.3Z"
             id="path49" />
        </g>
        <g
           class="cls-17"
           id="g54">
          <path
             class="cls-2"
             d="M137.59,135.05h-46.3c-3.1,0-5.6-2.5-5.6-5.6V61.05c0-3.1,2.5-5.6,5.6-5.6h46.3c3.1,0,5.6,2.5,5.6,5.6v68.4c0,3.1-2.5,5.6-5.6,5.6ZM91.29,57.45c-2,0-3.6,1.6-3.6,3.6v68.4c0,2,1.6,3.6,3.6,3.6h46.3c2,0,3.6-1.6,3.6-3.6V61.05c0-2-1.6-3.6-3.6-3.6h-46.3Z"
             id="path50" />
          <rect
             class="cls-2"
             x="99.49"
             y="55.95"
             width="2"
             height="78.5"
             id="rect50" />
          <rect
             class="cls-2"
             x="120.59"
             y="75.25"
             width="21.9"
             height="2"
             id="rect51" />
          <rect
             class="cls-2"
             x="127.29"
             y="55.95"
             width="2"
             height="39.9"
             id="rect52" />
          <g
             id="g53">
            <path
               class="cls-7"
               d="M142.09,100.95v27.7c0,3-1.7,5.4-3.9,5.4l-20.3.4c-2.1,0-3.9-2.4-3.9-5.4v-27.7c0-3,1.7-5.8,3.9-5.8h20.3c2.1,0,3.9,2.4,3.9,5.4h0Z"
               id="path52" />
            <path
               class="cls-2"
               d="M117.99,135.35c-2.7,0-4.9-2.8-4.9-6.4v-27.7c0-3.7,2.2-6.8,4.9-6.8h20.3c2.7,0,4.9,2.8,4.9,6.4v27.7c0,3.6-2.1,6.4-4.9,6.4l-20.2.4h-.1ZM117.99,96.55c-1.5,0-2.9,2.3-2.9,4.8v27.7c0,2.4,1.3,4.4,2.9,4.4l20.2-.4c1.6,0,2.9-2,2.9-4.4v-27.7c0-2.4-1.3-4.4-2.9-4.4h-20.3.1Z"
               id="path53" />
          </g>
        </g>
        <g
           id="g55">
          <rect
             class="cls-13"
             x="60.79"
             y="74.05"
             width="39.7"
             height="28"
             id="rect54" />
          <path
             class="cls-6"
             d="M100.29,60.65h15.5c2.4,0,4.3,1.9,4.3,4.3v9.3h-19.8v-13.6h0Z"
             id="path54" />
          <rect
             class="cls-9"
             x="42.19"
             y="88.25"
             width="39"
             height="28.3"
             rx="4.1"
             ry="4.1"
             id="rect55" />
          <path
             class="cls-2"
             d="M115.69,59.75H47.19c-3.1,0-5.6,2.5-5.6,5.6v25.1c-.2.5-.4,1.1-.4,1.7l.4,20.2c0,1.4.7,2.6,2,3.5,1,.8,2.2,1.3,3.6,1.3h68.4c3.1,0,5.6-2.5,5.6-5.6v-46.3c0-3.1-2.5-5.6-5.6-5.6l.1.1ZM119.19,65.35v7.9h-17.8v-11.4h14.2c2,0,3.6,1.6,3.6,3.6v-.1ZM47.69,87.15c-1.5,0-2.9.4-4,1.1v-13.1h16.4v12s-12.4,0-12.4,0ZM43.69,112.25l-.4-20.2c0-1.5,2-2.9,4.4-2.9h27.7c2.4,0,4.8,1.4,4.8,2.9v20.3c0,1.5-2,2.9-4.4,2.9h-27.7c-2.4,0-4.4-1.3-4.4-2.9v-.1ZM82.19,112.35v-9h17.3v11.9h-18.5c.8-.8,1.2-1.8,1.2-2.9ZM82.19,101.25v-9.2c0-2.6-3.1-4.9-6.8-4.9h-13.3v-12h37.4v26.1h-17.3ZM62.09,73.15v-11.4h37.4v11.4h-37.4ZM101.49,75.15h17.8v26.1h-17.8v-26.1ZM47.19,61.75h12.9v11.4h-16.4v-7.9c0-2,1.6-3.6,3.6-3.6l-.1.1ZM115.69,115.15h-14.2v-11.9h17.8v8.3c0,2-1.6,3.6-3.6,3.6Z"
             id="path55" />
        </g>
      </g>
    </g>
    <g
       id="g62">
      <path
         class="cls-2"
         d="M50.69,50.95c-.6.3-1.7.5-3,.5-3.5,0-5.7-2.1-5.7-5.5s2.2-5.7,6.2-5.7,1.8.2,2.6.4l-.5,2.5c-.4-.2-1-.3-1.9-.3-1.8,0-2.9,1.3-2.9,3,0,2,1.3,3,2.9,3s1.4-.1,1.9-.3l.4,2.5v-.1Z"
         id="path57" />
      <path
         class="cls-2"
         d="M52.59,35.65h3.3v6.1h0c.4-.5.8-.8,1.3-1.1s1.1-.4,1.7-.4c2.1,0,3.8,1.5,3.8,4.7v6.3h-3.3v-5.9c0-1.4-.5-2.4-1.7-2.4s-1.4.6-1.7,1.2c0,.2-.1.5-.1.7v6.4h-3.3s0-15.6,0-15.6Z"
         id="path58" />
      <path
         class="cls-2"
         d="M76.09,45.75c0,3.9-2.8,5.7-5.7,5.7s-5.6-2.1-5.6-5.5,2.3-5.7,5.7-5.7,5.5,2.3,5.5,5.5h.1ZM68.29,45.85c0,1.8.8,3.2,2.2,3.2s2.1-1.3,2.1-3.2-.6-3.2-2.1-3.2-2.2,1.6-2.2,3.2Z"
         id="path59" />
      <path
         class="cls-2"
         d="M78.19,44.05v-3.6h2.9l.2,1.5h0c.8-1.1,2-1.7,3.6-1.7,2.4,0,4.5,2,4.5,5.5s-2.5,5.8-4.9,5.8-2.3-.5-2.8-1.2h0v5.3h-3.3v-11.5l-.2-.1ZM81.49,46.65v.7c.2.9,1,1.6,2,1.6,1.5,0,2.3-1.2,2.3-3s-.8-3-2.3-3-1.8.7-2,1.7v2.1-.1Z"
         id="path60" />
      <path
         class="cls-2"
         d="M94.79,37.45c0,.9-.7,1.7-1.8,1.7s-1.8-.7-1.7-1.7c0-1,.7-1.7,1.8-1.7s1.8.7,1.8,1.7h-.1ZM91.29,51.25v-10.8h3.3v10.8h-3.3Z"
         id="path61" />
      <path
         class="cls-2"
         d="M97.39,43.95v-3.4h2.9l.2,1.5h0c.4-.7,1.5-1.7,3.3-1.7s3.9,1.5,3.9,4.6v6.4h-3.3v-6c0-1.4-.5-2.3-1.7-2.3s-1.5.6-1.7,1.3c0,.2-.1.5-.1.8v6.2h-3.3v-7.3l-.2-.1Z"
         id="path62" />
    </g>
  </g>
</svg>
